<svg version="1.1" xmlns="http://www.w3.org/2000/svg" xmlns:xlink="http://www.w3.org/1999/xlink" width="149.47056" height="99.12746" viewBox="0,0,149.47056,99.12746"><g transform="translate(-165.26472,-130.43627)"><g data-paper-data="{&quot;isPaintingLayer&quot;:true}" fill-rule="nonzero" stroke-linejoin="miter" stroke-miterlimit="10" stroke-dasharray="" stroke-dashoffset="0" style="mix-blend-mode: normal"><path d="M167.76472,227.06373v-94.12746h144.47056v94.12746z" fill="#2196f3" stroke="#0400be" stroke-width="5" stroke-linecap="butt"/><path d="M209.59406,174.1504c-0.91679,0 -1.5612,-0.3056 -1.93322,-0.91679c-0.23916,-0.42518 -0.45174,-1.32203 -0.63776,-2.69056c-1.24895,0.31888 -3.16888,0.90351 -5.7598,1.75385c-2.67064,1.06295 -4.01261,2.37169 -4.02589,3.92624c0.4916,0.18602 0.97658,0.31888 1.45491,0.3986c3.82658,0.67762 6.66994,1.61435 8.53009,2.81015c2.7105,1.75385 4.06575,4.27833 4.06575,7.57345c0,2.7105 -1.17587,4.75665 -3.52763,6.13848c-1.93987,1.12937 -4.39792,1.69407 -7.37415,1.69407c-2.16573,0 -4.23847,-0.36539 -6.2182,-1.09615c-2.56433,-0.93006 -3.84651,-2.22553 -3.84651,-3.88637c0,-0.66435 0.2591,-1.24231 0.77728,-1.73391c0.53146,-0.50491 1.12937,-0.75734 1.79371,-0.75734c0.51818,0 1.18253,0.3986 1.99301,1.19581c0.3986,0.38532 1.29546,0.69756 2.69057,0.93672c1.11609,0.1993 2.05281,0.29896 2.81015,0.29896c1.39511,0 2.62413,-0.16609 3.68708,-0.49825c1.55455,-0.47832 2.33183,-1.24231 2.33183,-2.29196c0,-2.25876 -1.58113,-3.78672 -4.74337,-4.58393l-2.59092,-0.55804c-2.20559,-0.4916 -3.77345,-1.05629 -4.70351,-1.69405c-1.34197,-0.93006 -2.01294,-2.33848 -2.01294,-4.22519c0,-3.46784 1.63427,-5.93918 4.90281,-7.41401c0.99651,-0.45174 2.59092,-0.98986 4.78323,-1.61433c2.19231,-0.62449 3.76014,-1.1493 4.70351,-1.57447c0.67762,-0.3056 1.41505,-0.45839 2.21225,-0.45839c0.71748,0 1.30211,0.23252 1.75385,0.69756c0.46504,0.46504 0.69756,1.07623 0.69756,1.83357c0,0.47832 0.09966,1.18253 0.29896,2.11259c0.21258,0.93006 0.31888,1.63427 0.31888,2.11259c0,0.74407 -0.23252,1.3486 -0.69755,1.81365c-0.45174,0.46504 -1.02972,0.69756 -1.73391,0.69756zM237.06276,194.99731c-0.31888,0 -0.8902,-0.36539 -1.71399,-1.09615c-0.74407,-0.6909 -1.30211,-1.30211 -1.67413,-1.83357c-1.59441,0.86365 -2.99616,1.51469 -4.20525,1.95315c-1.20909,0.45174 -2.22553,0.67762 -3.0493,0.67762c-3.87972,0 -6.7098,-1.10281 -8.49023,-3.3084c-1.67413,-2.05946 -2.5112,-5.21505 -2.5112,-9.4668c0,-4.01261 1.38183,-7.44722 4.14547,-10.30387c2.76364,-2.85666 6.0654,-4.28497 9.90528,-4.28497c1.44825,0 3.06924,0.37202 4.86295,1.11609c2.25876,0.93006 3.38812,2.05281 3.38812,3.3682c0,0.45174 -0.16609,0.85034 -0.49825,1.19581c-0.17272,0.62449 -0.3056,1.66085 -0.3986,3.1091c-0.093,1.44825 -0.14616,3.30176 -0.15944,5.56051c-0.01328,2.05946 0.12623,3.68708 0.41854,4.88289c0.17272,0.73076 0.69756,2.19231 1.57449,4.38463c0.11958,0.2923 0.31224,0.73076 0.57798,1.31539l0.13952,0.41854c0,0.67762 -0.23252,1.22902 -0.69755,1.65421c-0.46504,0.43846 -1.00315,0.6577 -1.61433,0.6577zM231.88093,177.67803c0,-0.71748 0.04651,-1.49475 0.13952,-2.33182c0.093,-0.83707 0.23252,-1.73391 0.41854,-2.69056c-0.62449,-0.3056 -1.15595,-0.53146 -1.59441,-0.67762c-0.43846,-0.15944 -0.79056,-0.23916 -1.05629,-0.23916c-2.57764,0 -4.80315,1.04964 -6.67659,3.14896c-1.86015,2.09932 -2.79022,4.52415 -2.79022,7.2745c0,2.72378 0.47832,4.76995 1.43497,6.13848c0.96992,1.35525 2.4182,2.03287 4.34477,2.03287c1.59441,0 2.94966,-0.2923 4.06575,-0.87693c0.5979,-0.31888 1.43497,-0.95 2.5112,-1.89336c-0.53146,-4.39791 -0.79721,-7.69303 -0.79721,-9.88534zM262.83241,195.11689c-1.43497,0 -2.24547,-0.78393 -2.43148,-2.35176l-0.69755,-5.46086c-0.22588,-1.93987 -0.33881,-3.75351 -0.33881,-5.44092c0,-0.46504 0.02657,-1.25559 0.07972,-2.37168c0.06643,-1.11609 0.09966,-1.90665 0.09966,-2.37168c0,-3.58742 -0.66435,-5.38113 -1.99301,-5.38113c-1.86015,0 -3.64057,1.10281 -5.34127,3.3084c-1.52797,2.01959 -2.72378,4.56401 -3.58742,7.63325c-0.02658,0.65104 -0.09964,1.46155 -0.21923,2.43148c-0.1063,0.83707 -0.15944,1.64755 -0.15944,2.43148c0,0.4916 0.04651,1.23567 0.13952,2.23217c0.1063,0.99651 0.15944,1.74721 0.15944,2.25211c0,0.74407 -0.22588,1.3486 -0.67762,1.81365c-0.45174,0.46504 -1.03637,0.69756 -1.75385,0.69756c-0.73076,0 -1.32203,-0.23252 -1.77378,-0.69755c-0.45174,-0.46504 -0.67762,-1.06958 -0.67762,-1.81364c0,-0.50491 -0.05314,-1.25559 -0.15944,-2.2521c-0.1063,-0.99651 -0.15944,-1.74057 -0.15944,-2.23217c0,-1.71399 0.11958,-4.08567 0.35874,-7.11505c0.23916,-3.02938 0.35874,-5.40106 0.35874,-7.11505c0,-0.53146 -0.02658,-1.32203 -0.07972,-2.37168c-0.05314,-1.04964 -0.07972,-1.84022 -0.07972,-2.37168c0,-0.70421 0.23252,-1.28217 0.69756,-1.73391c0.47832,-0.46504 1.06295,-0.69755 1.75385,-0.69755c1.52797,0 2.37169,1.07623 2.53113,3.22868l0.0598,2.92974c2.79022,-3.72028 5.66016,-5.58044 8.60982,-5.58044c2.65735,0 4.50421,1.16923 5.54058,3.5077c0.71748,1.55455 1.10944,3.8598 1.17588,6.91576v2.53113l-0.01992,2.31189c0,1.38183 0.17938,3.16224 0.53812,5.34127c0.35874,2.17904 0.53812,3.95281 0.53812,5.32135c0,0.73076 -0.23916,1.32203 -0.71748,1.77379c-0.47832,0.46504 -1.06958,0.69756 -1.77378,0.69756zM287.24682,174.1504c-0.91679,0 -1.5612,-0.3056 -1.93322,-0.91679c-0.23916,-0.42518 -0.45175,-1.32203 -0.63776,-2.69056c-1.24896,0.31888 -3.16888,0.90351 -5.7598,1.75385c-2.67064,1.06295 -4.01259,2.37169 -4.02589,3.92624c0.49161,0.18602 0.97658,0.31888 1.45491,0.3986c3.82658,0.67762 6.66995,1.61435 8.53009,2.81015c2.7105,1.75385 4.06575,4.27833 4.06575,7.57345c0,2.7105 -1.17587,4.75665 -3.52763,6.13848c-1.93986,1.12937 -4.39792,1.69407 -7.37415,1.69407c-2.16574,0 -4.23848,-0.36539 -6.2182,-1.09615c-2.56435,-0.93006 -3.84651,-2.22553 -3.84651,-3.88637c0,-0.66435 0.2591,-1.24231 0.77728,-1.73391c0.53147,-0.50491 1.12938,-0.75734 1.79371,-0.75734c0.51818,0 1.18252,0.3986 1.99301,1.19581c0.3986,0.38532 1.29546,0.69756 2.69057,0.93672c1.11609,0.1993 2.05281,0.29896 2.81015,0.29896c1.39511,0 2.62413,-0.16609 3.68708,-0.49825c1.55455,-0.47832 2.33183,-1.24231 2.33183,-2.29196c0,-2.25876 -1.58112,-3.78672 -4.74337,-4.58393l-2.59092,-0.55804c-2.20561,-0.4916 -3.77343,-1.05629 -4.70351,-1.69405c-1.34196,-0.93006 -2.01294,-2.33848 -2.01294,-4.22519c0,-3.46784 1.63427,-5.93918 4.90281,-7.41401c0.99651,-0.45174 2.59092,-0.98986 4.78323,-1.61433c2.19231,-0.62449 3.76016,-1.1493 4.70351,-1.57447c0.67762,-0.3056 1.41505,-0.45839 2.21225,-0.45839c0.71748,0 1.3021,0.23252 1.75385,0.69756c0.46503,0.46504 0.69756,1.07623 0.69756,1.83357c0,0.47832 0.09966,1.18253 0.29896,2.11259c0.21259,0.93006 0.31888,1.63427 0.31888,2.11259c0,0.74407 -0.23252,1.3486 -0.69755,1.81365c-0.45175,0.46504 -1.02972,0.69756 -1.73391,0.69756z" fill="#000000" stroke="none" stroke-width="1" stroke-linecap="square"/></g></g></svg>