<svg version="1.1" xmlns="http://www.w3.org/2000/svg" xmlns:xlink="http://www.w3.org/1999/xlink" width="720" height="540" viewBox="0,0,720,540"><defs><clipPath id="clip-1"><path d="M-120,450v-540h720v540z" fill="none" fill-rule="nonzero" stroke="none" stroke-width="1" stroke-linecap="butt"/></clipPath></defs><g transform="translate(120,90)"><g clip-path="url(#clip-1)" data-paper-data="{&quot;isPaintingLayer&quot;:true}" stroke-linejoin="miter" stroke-miterlimit="10" stroke-dasharray="" stroke-dashoffset="0" style="mix-blend-mode: normal"><path d="M65.76472,227.06373v-94.12746h348.47056v94.12746z" fill="#4683ca" fill-rule="nonzero" stroke="#264972" stroke-width="5" stroke-linecap="butt"/><path d="M-240,-180h960v720h-960z" fill-opacity="0" fill="#000000" fill-rule="evenodd" stroke="none" stroke-width="1" stroke-linecap="square"/><path d="M-103.30446,-67.28084h618.51965v42.01575h-618.51965z" fill-opacity="0" fill="#000000" fill-rule="evenodd" stroke="none" stroke-width="1" stroke-linecap="square"/><path d="M97.37106,190.73684c-4.09667,0 -7.14668,-1.17049 -9.14999,-3.51144c-1.62066,-1.89077 -2.64484,-4.68193 -3.0725,-8.37343c-0.20258,-1.66568 -0.30386,-4.99705 -0.30386,-9.9941c0,-1.84576 0.04501,-3.33137 0.13506,-4.45683c0.06753,-1.19298 0.18007,-2.02583 0.33764,-2.49852c0.33764,-0.94539 0.93413,-1.41808 1.78949,-1.41808c1.19298,0 1.78949,1.10296 1.78949,3.30886v11.54723c0,7.96827 2.79115,11.9524 8.37343,11.9524c5.22215,0 7.83321,-6.6965 7.83321,-20.08947c0,-0.49521 0,-1.13671 0,-1.92453c0,-0.78782 0,-1.31678 0,-1.58689c0,-0.81033 0.14631,-1.51936 0.43894,-2.12711c0.36015,-0.78782 0.90038,-1.18172 1.62066,-1.18172c1.30554,0 1.9583,0.90038 1.9583,2.70111c0,0.54022 0.01126,1.35055 0.03377,2.431c0,1.08044 0,1.89077 0,2.431c0,15.19373 -3.92786,22.7906 -11.78357,22.7906zM129.33728,191.34458c-1.12545,0 -1.75572,-0.60775 -1.89077,-1.82325l-0.57397,-4.32177c-0.18007,-1.53062 -0.27011,-2.97122 -0.27011,-4.32177c0,-0.36015 0.02252,-0.97914 0.06753,-1.857c0.04501,-0.87786 0.06753,-1.50813 0.06753,-1.89077c0,-2.81365 -0.5177,-4.22047 -1.55314,-4.22047c-1.48561,0 -2.89243,0.8666 -4.22047,2.59983c-1.2155,1.59815 -2.16089,3.60148 -2.83616,6.00996c-0.02252,0.5177 -0.07879,1.17049 -0.16881,1.9583c-0.09004,0.65276 -0.13506,1.28303 -0.13506,1.89077c0,0.40517 0.03377,1.00166 0.1013,1.78949c0.09004,0.78782 0.13506,1.37307 0.13506,1.75572c0,0.58523 -0.18007,1.05793 -0.54022,1.41808c-0.36015,0.38265 -0.82159,0.574 -1.38431,0.574c-0.58523,0 -1.05793,-0.19132 -1.41808,-0.57397c-0.33764,-0.36015 -0.50645,-0.83285 -0.50645,-1.41808c0,-0.38265 -0.04501,-0.9679 -0.13506,-1.75572c-0.09004,-0.78782 -0.13506,-1.38431 -0.13506,-1.78947c0,-1.35055 0.09004,-3.21881 0.27011,-5.6048c0.20258,-2.40848 0.30389,-4.288 0.30389,-5.63855c0,-0.40517 -0.02252,-1.02417 -0.06753,-1.857c-0.04501,-0.83285 -0.06753,-1.46309 -0.06753,-1.89077c0,-0.56274 0.18007,-1.02417 0.54022,-1.38431c0.38265,-0.36015 0.85534,-0.54022 1.41808,-0.54022c1.19298,0 1.85702,0.85534 1.99208,2.56605l0.03377,2.29594c2.2059,-2.92621 4.47934,-4.3893 6.8203,-4.3893c2.09336,0 3.55645,0.92287 4.3893,2.76863c0.56274,1.23801 0.8666,3.06126 0.91163,5.46974v1.99208l-0.03375,1.82325c0,1.10296 0.14631,2.52104 0.43894,4.25424c0.29263,1.71071 0.43894,3.10627 0.43894,4.18672c0,0.56274 -0.19132,1.02417 -0.57397,1.38433c-0.38265,0.36015 -0.85534,0.54022 -1.41808,0.54022zM153.47789,172.57189c-0.15757,1.93579 -0.23634,3.87159 -0.23634,5.80738c0,4.36678 0.20258,7.6644 0.60775,9.89282c0.02252,0.18007 0.03377,0.32638 0.03377,0.43894c0,0.54022 -0.18007,0.97916 -0.54022,1.3168c-0.36015,0.33764 -0.78782,0.50647 -1.28303,0.50647c-0.81033,0 -1.40682,-0.59649 -1.78947,-1.78947c-0.94539,0.69779 -1.92453,1.22676 -2.93744,1.58691c-1.01292,0.36015 -2.07084,0.54022 -3.1738,0.54022c-2.72362,0 -4.97453,-0.91161 -6.75277,-2.73486c-1.84576,-1.84576 -2.76863,-4.22047 -2.76863,-7.12416c0,-3.48892 0.92287,-6.29133 2.76863,-8.40718c1.86826,-2.11587 4.28802,-3.1738 7.25924,-3.1738c1.50813,0 2.67859,0.23636 3.51144,0.70905l1.85702,1.35055c0.18007,-5.51475 0.39391,-9.22878 0.64152,-11.14207c0.18007,-1.17049 0.77658,-1.75572 1.78949,-1.75572c1.19298,0 1.78949,0.63027 1.78949,1.89077c0,1.82325 -0.25885,5.85239 -0.77656,12.08745zM144.73305,173.07836c-2.2059,0 -3.86034,0.65276 -4.96327,1.9583c-1.10296,1.30554 -1.65442,3.2751 -1.65442,5.90868c0,1.68819 0.59649,3.15128 1.78949,4.3893c1.2155,1.2155 2.63358,1.82325 4.25424,1.82325c1.10296,0 2.02583,-0.20258 2.76863,-0.60775c0.45018,-0.24759 1.18175,-0.79907 2.19466,-1.65442c0.20258,-0.15757 0.39391,-0.36015 0.574,-0.60775l-0.06753,-3.41014l0.03377,-2.26217l0.03377,-2.32969c-0.49521,-1.05793 -1.15923,-1.857 -1.99206,-2.39722c-0.83285,-0.54022 -1.82325,-0.81033 -2.97122,-0.81033zM168.21103,190.87189c-2.9487,0 -5.34594,-0.7428 -7.19169,-2.22841c-2.00331,-1.64318 -3.00497,-3.93912 -3.00497,-6.88782c0,-3.4214 0.82159,-6.28007 2.46477,-8.57601c1.80073,-2.52104 4.20923,-3.78155 7.22546,-3.78155c2.16089,0 3.93912,0.36015 5.33469,1.08044c1.68819,0.92287 2.5323,2.31846 2.5323,4.18672c0,1.30554 -0.7428,2.49852 -2.22841,3.57897c-0.65276,0.47269 -2.04835,1.20424 -4.18672,2.19466l-7.49557,3.57897c0.72029,1.08044 1.63192,1.90203 2.73488,2.46477c1.10296,0.54022 2.37473,0.81033 3.81532,0.81033c0.92287,0 1.99208,-0.16881 3.20758,-0.50645c1.55314,-0.42768 2.54354,-0.9904 2.97122,-1.68819c0.45018,-0.69779 0.93413,-1.04667 1.45186,-1.04667c0.45018,0 0.85534,0.16883 1.2155,0.50647c0.36015,0.33764 0.54022,0.7428 0.54022,1.2155c0,1.46309 -1.17049,2.71237 -3.51144,3.7478c-2.00331,0.90038 -3.96162,1.35055 -5.87491,1.35055zM167.70456,172.9433c-1.62066,0 -2.95996,0.61901 -4.01789,1.85702c-1.05793,1.23801 -1.84576,3.10627 -2.36347,5.6048l6.04374,-2.86992c2.36347,-1.17049 4.05166,-2.1834 5.06458,-3.03875c-1.12545,-1.03543 -2.70111,-1.55314 -4.72694,-1.55314zM196.44213,175.40805c-0.09004,1.64318 -0.75406,2.46477 -1.99206,2.46477c-1.12545,0 -1.68819,-0.65276 -1.68819,-1.9583c0,-0.24759 -0.02252,-0.69779 -0.06753,-1.35055l-0.03375,-1.65442c-2.07084,0.24759 -3.73654,0.82159 -4.99705,1.72197c-1.17049,0.85534 -2.13837,2.14963 -2.90369,3.88285l0.03377,10.77068c0,1.32804 -0.65276,1.99208 -1.9583,1.99208c-1.14797,0 -1.72194,-0.66402 -1.72194,-1.99206v-13.8094c0,-0.42768 0.01126,-1.06918 0.03377,-1.92453c0.04501,-0.87786 0.06753,-1.54188 0.06753,-1.99206c0,-1.30554 0.574,-1.9583 1.72197,-1.9583c1.28303,0 1.93579,1.08044 1.9583,3.24133c2.52104,-2.40848 5.31217,-3.61272 8.37343,-3.61272c1.08044,0 1.87952,0.40517 2.39724,1.2155c0.5177,0.78782 0.77658,1.98082 0.77658,3.57897c0,0.69779 0,1.15923 0,1.38433zM200.38169,185.06451c0,-0.56274 0.19132,-1.01292 0.574,-1.35055c0.38265,-0.36015 0.85534,-0.54022 1.41808,-0.54022c0.65276,0 1.2155,0.37141 1.68819,1.11422c0.67528,0.9904 1.27177,1.66568 1.78949,2.02583c1.12545,0.7428 2.74612,1.11422 4.86199,1.11422c2.04835,0 3.93912,-0.43892 5.67232,-1.31678c2.22841,-1.12545 3.34263,-2.70111 3.34263,-4.72694c0,-1.64318 -0.93413,-2.9487 -2.80239,-3.91661c-1.59815,-0.81033 -3.55645,-1.24925 -5.87491,-1.31678c-2.09336,-0.09004 -3.86034,-0.54022 -5.30091,-1.35055c-1.86826,-1.08044 -2.80239,-2.61106 -2.80239,-4.59188c0,-2.34095 1.32804,-4.46808 3.98413,-6.38135c2.52104,-1.82325 5.1321,-2.73486 7.83321,-2.73486c1.28303,0 2.72362,0.21384 4.32177,0.64152c2.11587,0.56274 3.1738,1.28303 3.1738,2.16089c0,1.14797 -0.58523,1.72197 -1.75572,1.72197c-0.5177,0 -1.4406,-0.13506 -2.76863,-0.40517c-1.30554,-0.29263 -2.31846,-0.42768 -3.03875,-0.40517c-2.04835,0.02252 -3.79281,0.52896 -5.23338,1.51938c-1.46309,1.01292 -2.19464,2.23967 -2.19464,3.68027c0,1.08044 0.9679,1.84576 2.90369,2.29594c0.7428,0.18007 2.14963,0.33764 4.22049,0.47269c2.99373,0.2251 5.33469,1.17049 7.02288,2.83616c1.55314,1.53062 2.32972,3.38764 2.32972,5.57104c0,3.12879 -1.4406,5.62731 -4.32177,7.49557c-2.49852,1.59815 -5.40221,2.39724 -8.71107,2.39724c-2.40848,0 -4.6144,-0.46144 -6.61771,-1.38431c-2.431,-1.12545 -3.66901,-2.66733 -3.71402,-4.62563zM252.00224,172.33555c-1.03543,4.27676 -2.37473,9.11624 -4.01789,14.51845c-0.36015,1.19298 -0.9679,2.41974 -1.82325,3.68027c-0.47269,0.69779 -1.10296,1.03543 -1.89077,1.01292c-1.41808,-0.02252 -2.53228,-1.80073 -3.34261,-5.33469c-0.24759,-1.12545 -0.5177,-2.6561 -0.81033,-4.59188l-0.6415,-4.3893l-1.62066,3.7478l-2.97122,8.1371c-0.18007,0.49521 -0.42768,0.87786 -0.7428,1.14797c-0.40517,0.76532 -1.03543,1.15923 -1.89077,1.18175c-1.01292,0.02252 -1.98082,-1.93579 -2.90369,-5.87491c-0.47269,-2.02583 -0.94539,-4.78321 -1.41808,-8.27213l-0.47269,-2.93744c-0.18007,-1.19298 -0.27011,-2.1834 -0.27011,-2.97122c0,-0.56274 0.19132,-1.02417 0.574,-1.38431c0.40517,-0.36015 0.87786,-0.54022 1.41808,-0.54022c1.01292,0 1.63192,0.54022 1.85702,1.62066c0.18007,0.78782 0.31512,1.75572 0.40517,2.90369l0.30389,2.86994l1.14797,8.84613c1.46309,-4.02914 2.97122,-8.68855 4.52435,-13.97823c0.45018,-1.46309 1.2155,-2.19464 2.29594,-2.19464c1.03543,0 1.7332,0.82159 2.09336,2.46477c0.33764,1.53062 0.76532,3.89409 1.28303,7.09041c0.5177,3.30886 0.97916,5.88617 1.38433,7.73193l1.45186,-5.36844l2.5323,-10.7369c0.20258,-0.78782 0.76532,-1.18172 1.68819,-1.18172c0.56274,0 1.04669,0.19132 1.45186,0.574c0.40517,0.36015 0.60775,0.79907 0.60775,1.3168c0,0.06753 -0.06753,0.37141 -0.20258,0.91163zM271.37572,191.2433c-0.24759,0 -0.69779,-0.28137 -1.35055,-0.84409c-0.58523,-0.54022 -1.02417,-1.02417 -1.31678,-1.45183c-1.26051,0.69779 -2.37473,1.2155 -3.34261,1.55314c-0.94539,0.33764 -1.74446,0.50647 -2.39722,0.50647c-3.06126,0 -5.28968,-0.85534 -6.68524,-2.56605c-1.32804,-1.64318 -1.99206,-4.1417 -1.99206,-7.49557c0,-3.1738 1.0917,-5.88617 3.2751,-8.13707c2.1834,-2.27342 4.79446,-3.41014 7.83321,-3.41014c1.12545,0 2.39724,0.30389 3.81532,0.91163c1.80073,0.72029 2.70111,1.59815 2.70111,2.63358c0,0.36015 -0.13506,0.67528 -0.40517,0.94539c-0.13506,0.49521 -0.23634,1.3168 -0.30386,2.46477c-0.06753,1.14797 -0.11254,2.61106 -0.13506,4.3893c-0.02252,1.62066 0.09004,2.90369 0.33764,3.84908c0.13506,0.58523 0.55148,1.74446 1.24927,3.47769c0.09004,0.24759 0.23636,0.59649 0.43894,1.04669l0.13506,0.33764c0,0.5177 -0.19132,0.94539 -0.57397,1.28303c-0.36015,0.33764 -0.78782,0.50647 -1.28303,0.50647zM267.29031,177.56894c0,-0.56274 0.03377,-1.17049 0.1013,-1.82325c0.09004,-0.67528 0.20258,-1.38431 0.33764,-2.12711c-0.49521,-0.24759 -0.92287,-0.42768 -1.28303,-0.54022c-0.33764,-0.11254 -0.60775,-0.16881 -0.81033,-0.16881c-2.02583,0 -3.78155,0.83285 -5.26716,2.49852c-1.46309,1.64318 -2.19464,3.54521 -2.19464,5.7061c0,2.16089 0.37141,3.78155 1.11422,4.86199c0.76532,1.05793 1.91329,1.58691 3.44391,1.58691c1.26051,0 2.32972,-0.2251 3.20758,-0.67528c0.47269,-0.24759 1.13671,-0.7428 1.99208,-1.48561c-0.42768,-3.48892 -0.6415,-6.10001 -0.6415,-7.83321zM285.01606,190.63555c-1.30554,0 -2.74612,-0.20258 -4.32177,-0.60775l-0.06753,9.38635c0,0.58523 -0.18007,1.05793 -0.54022,1.41808c-0.36015,0.38265 -0.82159,0.574 -1.38431,0.574c-0.56274,0 -1.02417,-0.19132 -1.38431,-0.57397c-0.36015,-0.36015 -0.54022,-0.83285 -0.54022,-1.41808l0.06753,-7.86696v-7.83321c-0.04501,-2.88117 -0.14631,-5.50349 -0.30386,-7.86696l-0.30386,-3.98413c0,-0.94539 0.18007,-1.7332 0.54022,-2.36347c0.38265,-0.78782 0.94539,-1.18172 1.68819,-1.18172c0.5177,0 0.94539,0.18007 1.28303,0.54022c0.36015,0.36015 0.54022,0.81033 0.54022,1.35055c0,0.11254 -0.02252,0.32638 -0.06753,0.64152c-0.06753,0.40517 -0.11254,0.77658 -0.13506,1.11422c1.12545,-0.76532 2.2059,-1.3393 3.24133,-1.72194c1.05793,-0.40517 2.07084,-0.60775 3.03875,-0.60775c2.70111,0 4.67067,1.19298 5.90868,3.57897c0.9904,1.89077 1.48561,4.40056 1.48561,7.52935c0,2.81365 -0.76532,5.14336 -2.29594,6.98913c-1.62066,1.93579 -3.77029,2.90369 -6.44888,2.90369zM286.36661,173.58481c-1.2155,0 -2.3072,0.27011 -3.27508,0.81033c-0.69779,0.38265 -1.57565,1.08044 -2.63358,2.09336c0.18007,2.97122 0.27011,6.10001 0.27011,9.38635c1.41808,0.54022 2.84742,0.81033 4.28802,0.81033c1.64318,0 2.89243,-0.60775 3.7478,-1.82325c0.7428,-1.05793 1.11422,-2.431 1.11422,-4.11919c0,-2.40848 -0.29263,-4.19797 -0.87786,-5.36844c-0.56274,-1.19298 -1.4406,-1.78947 -2.63358,-1.78947zM310.14292,185.06451c0,-0.56274 0.19132,-1.01292 0.574,-1.35055c0.38265,-0.36015 0.85534,-0.54022 1.41808,-0.54022c0.65276,0 1.2155,0.37141 1.68819,1.11422c0.67528,0.9904 1.27177,1.66568 1.78949,2.02583c1.12545,0.7428 2.74612,1.11422 4.86195,1.11422c2.04835,0 3.93912,-0.43892 5.67232,-1.31678c2.22841,-1.12545 3.34263,-2.70111 3.34263,-4.72694c0,-1.64318 -0.93413,-2.9487 -2.80239,-3.91661c-1.59815,-0.81033 -3.55645,-1.24925 -5.87491,-1.31678c-2.09334,-0.09004 -3.86029,-0.54022 -5.30089,-1.35055c-1.86826,-1.08044 -2.80239,-2.61106 -2.80239,-4.59188c0,-2.34095 1.32804,-4.46808 3.98413,-6.38135c2.52102,-1.82325 5.13206,-2.73486 7.83317,-2.73486c1.28303,0 2.72362,0.21384 4.32177,0.64152c2.11587,0.56274 3.1738,1.28303 3.1738,2.16089c0,1.14797 -0.58523,1.72197 -1.75572,1.72197c-0.5177,0 -1.4406,-0.13506 -2.76863,-0.40517c-1.30554,-0.29263 -2.31846,-0.42768 -3.03875,-0.40517c-2.04835,0.02252 -3.79279,0.52896 -5.23336,1.51938c-1.46309,1.01292 -2.19464,2.23967 -2.19464,3.68027c0,1.08044 0.9679,1.84576 2.90369,2.29594c0.74278,0.18007 2.14961,0.33764 4.22045,0.47269c2.99373,0.2251 5.33469,1.17049 7.02288,2.83616c1.55314,1.53062 2.32972,3.38764 2.32972,5.57104c0,3.12879 -1.4406,5.62731 -4.32177,7.49557c-2.49852,1.59815 -5.40221,2.39724 -8.71107,2.39724c-2.40846,0 -4.61436,-0.46144 -6.61767,-1.38431c-2.431,-1.12545 -3.66901,-2.66733 -3.71402,-4.62563zM353.55883,191.2433c-0.24759,0 -0.69779,-0.28137 -1.35055,-0.84409c-0.58523,-0.54022 -1.02417,-1.02417 -1.31678,-1.45183c-1.26051,0.69779 -2.37473,1.2155 -3.34261,1.55314c-0.94539,0.33764 -1.74446,0.50647 -2.39722,0.50647c-3.06126,0 -5.28968,-0.85534 -6.68524,-2.56605c-1.32804,-1.64318 -1.99206,-4.1417 -1.99206,-7.49557c0,-3.1738 1.0917,-5.88617 3.2751,-8.13707c2.1834,-2.27342 4.79446,-3.41014 7.83321,-3.41014c1.12545,0 2.39724,0.30389 3.81532,0.91163c1.80073,0.72029 2.70111,1.59815 2.70111,2.63358c0,0.36015 -0.13506,0.67528 -0.40517,0.94539c-0.13506,0.49521 -0.23634,1.3168 -0.30386,2.46477c-0.06753,1.14797 -0.11254,2.61106 -0.13506,4.3893c-0.02252,1.62066 0.09004,2.90369 0.33764,3.84908c0.13506,0.58523 0.55148,1.74446 1.24927,3.47769c0.09004,0.24759 0.23636,0.59649 0.43894,1.04669l0.13506,0.33764c0,0.5177 -0.19132,0.94539 -0.57397,1.28303c-0.36015,0.33764 -0.78782,0.50647 -1.28303,0.50647zM349.47339,177.56894c0,-0.56274 0.03377,-1.17049 0.1013,-1.82325c0.09004,-0.67528 0.20258,-1.38431 0.33764,-2.12711c-0.49521,-0.24759 -0.92287,-0.42768 -1.28303,-0.54022c-0.33764,-0.11254 -0.60775,-0.16881 -0.81033,-0.16881c-2.02583,0 -3.78155,0.83285 -5.26716,2.49852c-1.46309,1.64318 -2.19464,3.54521 -2.19464,5.7061c0,2.16089 0.37141,3.78155 1.11422,4.86199c0.76532,1.05793 1.91329,1.58691 3.44391,1.58691c1.26051,0 2.32972,-0.2251 3.20758,-0.67528c0.47269,-0.24759 1.13671,-0.7428 1.99208,-1.48561c-0.42768,-3.48892 -0.6415,-6.10001 -0.6415,-7.83321zM373.91815,191.34458c-1.12545,0 -1.75572,-0.60775 -1.89077,-1.82325l-0.57397,-4.32177c-0.18007,-1.53062 -0.27011,-2.97122 -0.27011,-4.32177c0,-0.36015 0.02252,-0.97914 0.06753,-1.857c0.04501,-0.87786 0.06753,-1.50813 0.06753,-1.89077c0,-2.81365 -0.5177,-4.22047 -1.55314,-4.22047c-1.48561,0 -2.89243,0.8666 -4.22047,2.59983c-1.2155,1.59815 -2.16089,3.60148 -2.83616,6.00996c-0.02252,0.5177 -0.07879,1.17049 -0.16881,1.9583c-0.09004,0.65276 -0.13506,1.28303 -0.13506,1.89077c0,0.40517 0.03377,1.00166 0.1013,1.78949c0.09004,0.78782 0.13506,1.37307 0.13506,1.75572c0,0.58523 -0.18007,1.05793 -0.54022,1.41808c-0.36015,0.38265 -0.82159,0.574 -1.38431,0.574c-0.58523,0 -1.05793,-0.19132 -1.41808,-0.57397c-0.33764,-0.36015 -0.50645,-0.83285 -0.50645,-1.41808c0,-0.38265 -0.04501,-0.9679 -0.13506,-1.75572c-0.09004,-0.78782 -0.13506,-1.38431 -0.13506,-1.78947c0,-1.35055 0.09004,-3.21881 0.27011,-5.6048c0.20258,-2.40848 0.30389,-4.288 0.30389,-5.63855c0,-0.40517 -0.02252,-1.02417 -0.06753,-1.857c-0.04501,-0.83285 -0.06753,-1.46309 -0.06753,-1.89077c0,-0.56274 0.18007,-1.02417 0.54022,-1.38431c0.38265,-0.36015 0.85534,-0.54022 1.41808,-0.54022c1.19298,0 1.85702,0.85534 1.99208,2.56605l0.03377,2.29594c2.2059,-2.92621 4.47934,-4.3893 6.8203,-4.3893c2.09336,0 3.55645,0.92287 4.3893,2.76863c0.56274,1.23801 0.8666,3.06126 0.91163,5.46974v1.99208l-0.03375,1.82325c0,1.10296 0.14631,2.52104 0.43894,4.25424c0.29263,1.71071 0.43894,3.10627 0.43894,4.18672c0,0.56274 -0.19132,1.02417 -0.57397,1.38433c-0.38265,0.36015 -0.85534,0.54022 -1.41808,0.54022zM393.23055,174.8003c-0.72029,0 -1.22676,-0.23634 -1.51936,-0.70903c-0.20258,-0.36015 -0.37139,-1.06918 -0.50645,-2.12711c-0.9904,0.24759 -2.50978,0.69779 -4.55811,1.35055c-2.11587,0.85534 -3.18506,1.89077 -3.20755,3.10627c0.40517,0.15757 0.79907,0.27011 1.18175,0.33764c3.01623,0.54022 5.2559,1.28303 6.71901,2.22841c2.13837,1.37307 3.20758,3.36513 3.20758,5.97621c0,2.13837 -0.92287,3.7478 -2.76863,4.82824c-1.53062,0.90038 -3.47766,1.35055 -5.84113,1.35055c-1.71071,0 -3.34261,-0.29263 -4.89575,-0.87786c-2.02583,-0.72029 -3.03875,-1.74446 -3.03875,-3.0725c0,-0.5177 0.20258,-0.9679 0.60775,-1.35055c0.42768,-0.40517 0.90038,-0.60775 1.41808,-0.60775c0.40517,0 0.93413,0.31512 1.58691,0.94539c0.31512,0.29263 1.02417,0.54022 2.12713,0.7428c0.87786,0.15757 1.60941,0.23636 2.19466,0.23636c1.10296,0 2.0821,-0.1238 2.93746,-0.37139c1.2155,-0.38265 1.82325,-0.9904 1.82325,-1.82325c0,-1.77824 -1.24925,-2.98248 -3.74778,-3.61272l-2.02583,-0.47269c-1.75572,-0.38265 -3.00497,-0.82159 -3.74778,-1.31678c-1.05793,-0.7428 -1.58689,-1.857 -1.58689,-3.34261c0,-2.74612 1.29428,-4.70442 3.88285,-5.87491c0.78782,-0.33764 2.04835,-0.75406 3.78155,-1.24925c1.7332,-0.49521 2.97122,-0.91161 3.71402,-1.24925c0.54022,-0.24759 1.12545,-0.37139 1.75572,-0.37139c0.56274,0 1.02417,0.19132 1.38433,0.574c0.36015,0.36015 0.54022,0.83285 0.54022,1.41808c0,0.38265 0.07879,0.94539 0.23636,1.68819c0.18007,0.72029 0.27011,1.27177 0.27011,1.65444c0,0.58523 -0.18007,1.06918 -0.54022,1.45186c-0.36015,0.36015 -0.82159,0.54022 -1.38431,0.54022z" fill="#000000" fill-rule="nonzero" stroke="none" stroke-width="1" stroke-linecap="square"/></g></g></svg>