<svg version="1.1" xmlns="http://www.w3.org/2000/svg" xmlns:xlink="http://www.w3.org/1999/xlink" width="93" height="64" viewBox="0,0,93,64"><g transform="translate(-194.10937,-167.375)"><g data-paper-data="{&quot;isPaintingLayer&quot;:true}" fill="#ffffff" fill-rule="nonzero" stroke="#000000" stroke-width="2" stroke-linecap="butt" stroke-linejoin="miter" stroke-miterlimit="10" stroke-dasharray="" stroke-dashoffset="0" style="mix-blend-mode: normal"><path d="M268.10938,219.375c0,2.2091 -4.9249,4 -11,4c-6.0751,0 -11,-1.7909 -11,-4c0,-2.2091 4.9249,-4 11,-4c6.0751,0 11,1.7909 11,4z"/><path d="M217.10938,211.375c0,2.2091 -4.9249,4 -11,4c-6.0751,0 -11,-1.7909 -11,-4c0,-2.2091 4.9249,-4 11,-4c6.0751,0 11,1.7909 11,4z"/><path d="M286.10938,198.375c0,2.2091 -4.9249,4 -11,4c-6.0751,0 -11,-1.7909 -11,-4c0,-2.2091 4.9249,-4 11,-4c6.0751,0 11,1.7909 11,4z"/><path d="M222.10938,187.375c0,2.2091 -4.9249,4 -11,4c-6.0751,0 -11,-1.7909 -11,-4c0,-2.2091 4.9249,-4 11,-4c6.0751,0 11,1.7909 11,4z"/><path d="M257.10938,172.375c0,2.2091 -4.9249,4 -11,4c-6.0751,0 -11,-1.7909 -11,-4c0,-2.2091 4.9249,-4 11,-4c6.0751,0 11,1.7909 11,4z"/><path d="M218.10938,198.375c0,2.2091 -4.9249,4 -11,4c-6.0751,0 -11,-1.7909 -11,-4c0,-2.2091 4.9249,-4 11,-4c6.0751,0 11,1.7909 11,4z"/><path d="M233.10938,226.375c0,2.2091 -4.9249,4 -11,4c-6.0751,0 -11,-1.7909 -11,-4c0,-2.2091 4.9249,-4 11,-4c6.0751,0 11,1.7909 11,4z"/><path d="M232.10938,174.375c0,2.2091 -4.9249,4 -11,4c-6.0751,0 -11,-1.7909 -11,-4c0,-2.2091 4.9249,-4 11,-4c6.0751,0 11,1.7909 11,4z"/><path d="M282.10938,183.375c0,2.2091 -4.9249,4 -11,4c-6.0751,0 -11,-1.7909 -11,-4c0,-2.2091 4.9249,-4 11,-4c6.0751,0 11,1.7909 11,4z"/></g></g></svg>